<svg width="22" height="16" viewBox="0 0 22 16" fill="none" xmlns="http://www.w3.org/2000/svg">
<rect width="22" height="16" fill="#E5E5E5"/>
<g id="Real-Estate Landing Page v2" clip-path="url(#clip0_0_1)">
<rect width="1440" height="4324" transform="translate(-185 -2371)" fill="white"/>
<g id="Feature 01">
<g id="Feature 01_2">
<rect id="bg" x="-185" y="-578" width="1440" height="727" fill="#F5FAFE"/>
<g id="cards">
<g id="card 01">
<g id="Rectangle 65" filter="url(#filter0_d_0_1)">
<rect x="-20" y="-318" width="350" height="357" rx="12" fill="white"/>
</g>
<g id="bed and both">
<g id="beds">
<g id="Group 457">
<path id="Rectangle 73 (Stroke)" fill-rule="evenodd" clip-rule="evenodd" d="M18.6817 6.11577H2.73025C2.44333 6.11577 2.21074 6.34836 2.21074 6.63528V13.1115C2.21074 13.3984 2.44333 13.631 2.73025 13.631H18.6817C18.9686 13.631 19.2012 13.3984 19.2012 13.1115V6.63528C19.2012 6.34836 18.9686 6.11577 18.6817 6.11577ZM2.73025 4.31519C1.4489 4.31519 0.410156 5.35393 0.410156 6.63528V13.1115C0.410156 14.3928 1.4489 15.4316 2.73025 15.4316H18.6817C19.963 15.4316 21.0017 14.3928 21.0017 13.1115V6.63528C21.0017 5.35393 19.963 4.31519 18.6817 4.31519H2.73025Z" fill="#0688FF"/>
<path id="Rectangle 74 (Stroke)" fill-rule="evenodd" clip-rule="evenodd" d="M15.5062 1.80058H5.90698C5.62006 1.80058 5.38747 2.03318 5.38747 2.3201V4.33321H16.0257V2.3201C16.0257 2.03318 15.7931 1.80058 15.5062 1.80058ZM5.90698 0C4.62563 0 3.58688 1.03874 3.58688 2.3201V6.13379H17.8263V2.3201C17.8263 1.03874 16.7875 0 15.5062 0H5.90698Z" fill="#0688FF"/>
</g>
</g>
</g>
</g>
</g>
</g>
</g>
</g>
<defs>
<filter id="filter0_d_0_1" x="-54" y="-318" width="418" height="456" filterUnits="userSpaceOnUse" color-interpolation-filters="sRGB">
<feFlood flood-opacity="0" result="BackgroundImageFix"/>
<feColorMatrix in="SourceAlpha" type="matrix" values="0 0 0 0 0 0 0 0 0 0 0 0 0 0 0 0 0 0 127 0" result="hardAlpha"/>
<feMorphology radius="46" operator="erode" in="SourceAlpha" result="effect1_dropShadow_0_1"/>
<feOffset dy="65"/>
<feGaussianBlur stdDeviation="40"/>
<feColorMatrix type="matrix" values="0 0 0 0 0.885625 0 0 0 0 0.935278 0 0 0 0 0.975 0 0 0 0.6 0"/>
<feBlend mode="normal" in2="BackgroundImageFix" result="effect1_dropShadow_0_1"/>
<feBlend mode="normal" in="SourceGraphic" in2="effect1_dropShadow_0_1" result="shape"/>
</filter>
<clipPath id="clip0_0_1">
<rect width="1440" height="4324" fill="white" transform="translate(-185 -2371)"/>
</clipPath>
</defs>
</svg>
